<svg width="181" height="46" viewBox="0 0 181 46" fill="none" xmlns="http://www.w3.org/2000/svg">
<path d="M42.945 16.365H46.2015C45.5533 14.6956 44.5592 13.1248 43.1943 11.7789C40.9382 9.54897 38.0775 8.29232 35.1327 7.99664V8.64344C35.1358 12.9031 38.6385 16.365 42.945 16.365Z" fill="#3772FF"/>
<path d="M24.6311 19.0261H20.6611C20.0222 23.0363 21.2531 27.2836 24.3818 30.3759C26.6379 32.6059 29.4986 33.8625 32.4434 34.1582V26.7477C32.4403 22.4911 28.9377 19.0261 24.6311 19.0261Z" fill="#3772FF"/>
<path d="M42.9446 19.0261C37.1516 19.0261 32.4399 14.3692 32.4399 8.64344V7.99664C29.4951 8.29232 26.6344 9.54897 24.3783 11.7789C23.0165 13.1248 22.0194 14.6956 21.3712 16.365H24.6276C30.4206 16.365 35.1323 21.022 35.1323 26.7477V34.1582C38.0771 33.8625 40.9378 32.6059 43.1939 30.3759C46.3226 27.2836 47.5535 23.0394 46.9147 19.0261H42.9446V19.0261ZM36.3445 17.7171C35.2258 18.2253 34.3252 19.1185 33.8111 20.2212L33.7892 20.2427V20.2335L33.7737 20.2181C33.2595 19.1124 32.3558 18.2223 31.2402 17.7141L31.2184 17.6925L31.234 17.6771C32.3527 17.1689 33.2533 16.2757 33.7674 15.173L33.7892 15.1515V15.1607L33.8048 15.1761C34.319 16.2819 35.2227 17.172 36.3383 17.6802L36.3601 17.7017L36.3445 17.7171Z" fill="#3772FF"/>
<path d="M10.6734 1.78119H5.07979V8.68963H0.514557V13.0417H5.07979V23.4028C5.07979 24.8165 5.09537 26.0824 5.12654 27.2004C5.1577 28.3216 5.45997 29.4181 6.03647 30.493C6.68775 31.6757 7.64443 32.5381 8.90338 33.0833C10.1623 33.6284 11.5864 33.921 13.1788 33.958C14.7712 33.9949 16.3978 33.8625 18.0588 33.5545V28.9068C16.4882 29.1378 15.0922 29.1994 13.8644 29.0916C12.6366 28.9838 11.7454 28.4694 11.1844 27.5485C10.8884 27.0742 10.7295 26.4582 10.7077 25.7066C10.6858 24.9551 10.6734 24.0804 10.6734 23.0825V13.0417H18.0588V8.68963H10.6734V1.78119V1.78119Z" fill="white"/>
<path d="M69.638 10.473C69.3389 10.205 69.0273 9.94629 68.6938 9.7122C67.0703 8.56952 65.0635 7.99664 62.6702 7.99664C60.2926 7.99664 58.2265 8.56952 56.4721 9.7122C54.7177 10.8549 53.3621 12.4134 52.4054 14.3876C51.4488 16.3589 50.972 18.6042 50.972 21.1236C50.972 23.6092 51.4456 25.8453 52.393 27.8257C53.3403 29.8061 54.6771 31.3708 56.4004 32.5227C58.1237 33.6746 60.143 34.2506 62.4583 34.2506C64.9108 34.2506 66.9706 33.6746 68.6315 32.5227C68.7343 32.4519 68.8341 32.3718 68.9338 32.2979V34.6664C68.9649 35.8491 68.7281 36.8347 68.2233 37.6263C67.7185 38.4178 67.008 39.0154 66.0918 39.4219C65.1756 39.8285 64.1348 40.0318 62.9694 40.0318C61.9753 40.0318 61.0404 39.8131 60.1617 39.3757C59.2829 38.9384 58.6036 38.2669 58.1237 37.3614L52.9508 39.8932C53.6021 41.0297 54.4434 41.9999 55.4655 42.8068C56.4908 43.6138 57.6438 44.2298 58.9245 44.661C60.2053 45.0922 61.5453 45.3047 62.9444 45.3047C64.8391 45.3047 66.5686 45.0522 68.1267 44.544C69.6879 44.0388 70.9967 43.2658 72.0531 42.2309C73.1095 41.196 73.8231 39.8716 74.197 38.2577C74.3217 37.7064 74.4089 37.1396 74.465 36.5668C74.518 35.9908 74.5461 35.3871 74.5461 34.7588V8.68964H69.6318V10.473H69.638ZM66.9706 28.2507C66.0451 28.9345 64.8297 29.2764 63.3246 29.2764C61.8631 29.2764 60.6603 28.916 59.7129 28.1953C58.7656 27.4746 58.0613 26.4951 57.6033 25.2601C57.1452 24.025 56.9177 22.6451 56.9177 21.1267C56.9177 19.6237 57.1514 18.2531 57.6157 17.0149C58.0832 15.7798 58.803 14.7973 59.7815 14.0673C60.76 13.3374 62.0033 12.9739 63.5085 12.9739C64.9357 12.9739 66.1012 13.3158 67.0017 13.9996C67.9023 14.6833 68.5661 15.6351 68.993 16.8547C69.4199 18.0744 69.6349 19.5005 69.6349 21.1267C69.6349 22.7375 69.4199 24.1574 68.993 25.3863C68.5692 26.6122 67.893 27.567 66.9706 28.2507Z" fill="white"/>
<path d="M99.0738 9.80461C97.2477 8.60032 95.0321 7.99664 92.4238 7.99664C89.9558 7.99664 87.7807 8.54796 85.9016 9.65368C84.0226 10.7594 82.5548 12.3117 81.4984 14.3168C80.442 16.3188 79.9154 18.6812 79.9154 21.3977C79.9154 23.9172 80.4545 26.1409 81.5358 28.0752C82.614 30.0094 84.1192 31.5217 86.045 32.612C87.9708 33.7023 90.2082 34.2475 92.7542 34.2475C95.1786 34.2475 97.3942 33.6253 99.4041 32.381C101.414 31.1367 102.904 29.3965 103.867 27.1543L98.3228 25.4972C97.7775 26.6491 97.0078 27.5269 96.0044 28.1337C95.0041 28.7405 93.8105 29.0423 92.427 29.0423C90.283 29.0423 88.6532 28.3524 87.5345 26.9695C86.6557 25.8853 86.1291 24.4469 85.939 22.6636H98.5752H101.395H104.144C104.362 19.6853 104.029 17.0981 103.144 14.9051C102.255 12.7121 100.9 11.012 99.0738 9.80461ZM92.6544 12.8569C94.6893 12.8569 96.1789 13.479 97.1262 14.7234C97.7993 15.6042 98.2293 16.8609 98.435 18.4779H86.0699C86.3254 17.0426 86.8116 15.8691 87.5283 14.9667C88.647 13.5591 90.3578 12.8569 92.6544 12.8569Z" fill="white"/>
<path d="M116.955 1.78119H111.364V8.68963H106.799V13.0417H111.364V23.4028C111.364 24.8165 111.38 26.0824 111.411 27.2004C111.442 28.3216 111.744 29.4181 112.321 30.493C112.972 31.6757 113.929 32.5381 115.188 33.0833C116.447 33.6284 117.871 33.921 119.463 33.958C121.056 33.9949 122.682 33.8625 124.343 33.5545V28.9068C122.773 29.1378 121.377 29.1994 120.149 29.0916C118.921 28.9838 118.03 28.4694 117.469 27.5485C117.173 27.0742 117.014 26.4582 116.992 25.7066C116.97 24.9551 116.958 24.0804 116.958 23.0825V13.0417H124.343V8.68963H116.958V1.78119H116.955Z" fill="white"/>
<path d="M152.274 14.283C151.931 13.208 151.404 12.1947 150.691 11.243C149.977 10.2913 149.014 9.50896 147.802 8.89296C146.59 8.28004 145.054 7.97204 143.19 7.97204C140.828 7.97204 138.84 8.48332 137.226 9.5028C136.359 10.051 135.608 10.704 134.966 11.4524V0.398315H129.959V33.5576H135.643V20.7787C135.643 19.2603 135.814 18.0129 136.154 17.0365C136.496 16.0632 136.948 15.2932 137.515 14.7357C138.083 14.1752 138.715 13.7809 139.413 13.5499C140.111 13.3189 140.819 13.205 141.532 13.205C142.869 13.205 143.929 13.4883 144.711 14.0581C145.496 14.6248 146.085 15.3517 146.481 16.2357C146.876 17.1196 147.129 18.0344 147.238 18.9861C147.347 19.9379 147.4 20.8064 147.4 21.5887V33.5638H153.084V19.673C153.084 19.0724 153.034 18.2962 152.931 17.3352C152.838 16.3774 152.613 15.3579 152.274 14.283Z" fill="white"/>
<path d="M173.542 8.68969C172.797 8.56649 172.027 8.53262 171.236 8.58498C170.444 8.64042 169.671 8.78518 168.917 9.02234C168.163 9.2595 167.478 9.58598 166.854 10.0018C166.125 10.4484 165.499 11.012 164.978 11.6958C164.742 12.0069 164.53 12.3333 164.336 12.6721V8.68969H159.375V33.5576H165.013V20.9173C165.013 19.9656 165.128 19.0785 165.362 18.2593C165.595 17.4369 165.957 16.7039 166.446 16.0601C166.935 15.4164 167.568 14.8867 168.344 14.4709C169.12 14.0089 169.992 13.7409 170.965 13.6639C171.934 13.5869 172.794 13.6577 173.539 13.8703V8.68969H173.542Z" fill="white"/>
<path d="M176.926 29.7477L176.904 29.7261V29.7107L176.873 29.7415C176.097 31.4078 174.738 32.7476 173.052 33.5176L173.031 33.5391L173.062 33.5699C174.748 34.3369 176.103 35.6797 176.882 37.346L176.904 37.3676V37.383L176.935 37.3522C177.711 35.6859 179.07 34.3461 180.756 33.5761L180.777 33.5545L180.746 33.5237C179.06 32.7537 177.702 31.4139 176.926 29.7477Z" fill="#3772FF"/>
</svg>
